<svg xmlns="http://www.w3.org/2000/svg" version="1.1" xmlns:xlink="http://www.w3.org/1999/xlink" xmlns:svgjs="http://svgjs.com/svgjs" width="512" height="104" x="0" y="0" viewBox="0 0 512 104" xml:space="preserve" class="">
<path xmlns="http://www.w3.org/2000/svg" d="m492.472656 349.640625h-23.242187c-2.476563-10.851563-12.449219-18.96875-24.378907-18.96875-2.175781 0-4.289062.273437-6.304687.78125-5.996094-15.625-21.503906-26.757813-39.699219-26.757813-19.96875 0-36.699218 13.410157-41.171875 31.449219-2.539062-1.535156-5.527343-2.433593-8.738281-2.433593-9.097656 0-16.480469 7.117187-16.558594 15.929687h-64.128906c-4.019531-8.164063-12.605469-13.808594-22.550781-13.808594-6.34375 0-12.128907 2.300781-16.535157 6.078125-1.980468-16.4375-16.375-29.195312-33.851562-29.195312-15.582031 0-28.714844 10.148437-32.78125 24-5.917969-11.207032-17.867188-18.917969-31.703125-19.082032-7.597656-19.664062-27.148437-33.664062-50.074219-33.664062-28.425781 0-51.664062 21.519531-53.359375 48.683594-15.21875.507812-27.394531 12.625-27.394531 27.511718 0 15.207032 12.707031 27.535157 28.382812 27.535157 8.582032 0 464.089844-.175781 464.089844-.175781 10.785156 0 19.523438-8.480469 19.523438-18.941407.003906-10.460937-8.738282-18.941406-19.523438-18.941406zm0 0" fill="#fff" data-original="#fff" class="" transform="translate(0, -284)" />
</svg>